inDegrees=yes
name=ik_S49_A08_T01
DataType=double
version=3
OpenSimVersion=4.3-2021-08-27-4bc7ad9
endheader
time	pelvis_tilt	pelvis_list	pelvis_rotation	pelvis_tx	pelvis_ty	pelvis_tz	hip_flexion_r	hip_adduction_r	hip_rotation_r	knee_angle_r	knee_angle_r_beta	ankle_angle_r	subtalar_angle_r	mtp_angle_r	hip_flexion_l	hip_adduction_l	hip_rotation_l	knee_angle_l	knee_angle_l_beta	ankle_angle_l	subtalar_angle_l	mtp_angle_l	lumbar_extension	lumbar_bending	lumbar_rotation	arm_flex_r	arm_add_r	arm_rot_r	elbow_flex_r	pro_sup_r	wrist_flex_r	wrist_dev_r	arm_flex_l	arm_add_l	arm_rot_l	elbow_flex_l	pro_sup_l	wrist_flex_l	wrist_dev_l
0	0	0	0	0	0.9399999999999999	0	0	0	0	0	0	0	0	0	0	0	0	0	0	0	0	0	0	0	0	0	0	0	0	89.99999999963507	0	0	0	0	0	0	89.99999999869995	0	0
0.02	-4.633152844800629	-2.403307666137125	22.15646663289717	0	0.9399999999999999	0	3.261021967047103	-1.512616601625304	-1.096509220004429	5.047191500112685	0.08809010965563811	0	0	0	3.261021967047103	-1.512616601625304	-1.096509220004429	5.047191500112685	0.08809010965563811	0	0	0	-4.003710344829964	-1.165869412234587	4.836725680991371	31.20292203912044	-3.657906867993896	3.243878183907751	37.43308178303766	120.90152154754	0	0	37.47713824850573	-9.432710157177169	13.6262414643175	22.26986735841295	118.4048392252011	0	0
0.04	-4.340223745229938	-1.965741996576621	24.32177694945723	0	0.9399999999999999	0	34.12695543572588	-14.4691278904178	-10.41273563789433	50.94984943446389	0.8892426260267657	0	0	0	34.12695543572588	-14.4691278904178	-10.41273563789433	50.94984943446389	0.8892426260267657	0	0	0	-4.497090126838946	-1.271342044223047	2.668490384290322	31.18604934496752	-3.662697803565223	3.280751318838601	37.45967565471985	120.8680615860831	0	0	37.48535804807956	-9.409777847717546	13.63079254744931	22.28881101705447	118.3924498886274	0	0
0.06	-4.350720611634774	-1.967488749693322	24.33264595812634	0	0.9399999999999999	0	34.13835293218324	-14.45188176340651	-10.41175341609273	50.9526116276351	0.8892908353921795	0	0	0	34.13835293218324	-14.45188176340651	-10.41175341609273	50.9526116276351	0.8892908353921795	0	0	0	-4.507480070622033	-1.267999406873123	2.669921261034189	31.19096861330483	-3.664813698422932	3.279475007865833	37.49621022958797	120.8263863892992	0	0	37.47114484579531	-9.433534461490416	13.61952826014174	22.32284016608231	118.3936405108621	0	0
0.08	-4.35914140606805	-1.956302173870799	24.32835361209066	0	0.9399999999999999	0	34.14591915036943	-14.44159118827445	-10.41113732441264	50.95449259532482	0.8893236644714888	0	0	0	34.14591915036943	-14.44159118827445	-10.41113732441264	50.95449259532482	0.8893236644714888	0	0	0	-4.510815341414494	-1.253360009882332	2.665600107643323	31.16624605023818	-3.667566509362346	3.279810910961174	37.51573116227832	120.7929404403916	0	0	37.48443565667459	-9.444103114959125	13.6041265552002	22.31906468476768	118.4100731087185	0	0
0.1	-4.370048837407634	-1.948312998685801	24.32829120013437	0	0.9399999999999999	0	34.15460600912859	-14.429050578883	-10.41040734659345	50.95662418515241	0.8893608677322822	0	0	0	34.15460600912859	-14.429050578883	-10.41040734659345	50.95662418515241	0.8893608677322822	0	0	0	-4.517555618328518	-1.241098368432291	2.667296330329347	31.14958748593834	-3.663819540864643	3.255171520004456	37.54710148254581	120.7654455627439	0	0	37.49020746978162	-9.453863961671725	13.5804534197992	22.32667025417316	118.4124919140623	0	0
0.12	-4.369145831434902	-1.942182562505197	24.31855074430643	0	0.9399999999999999	0	34.16266983957417	-14.41990896744591	-10.40980748915812	50.9586984122088	0.88939706982385	0	0	0	34.16266983957417	-14.41990896744591	-10.40980748915812	50.9586984122088	0.88939706982385	0	0	0	-4.51384781387924	-1.2361208079568	2.677747232648515	31.14209688915335	-3.672255234398734	3.262168154127935	37.55616254464535	120.7544226549927	0	0	37.49495209529025	-9.427615301185224	13.57740474221477	22.19697578067836	118.499567619511	0	0
0.14	-4.37570935192466	-1.92839073289784	24.31939867032584	0	0.9399999999999999	0	34.17207740173804	-14.4070228086773	-10.40903568090775	50.96103590601057	0.8894378667869359	0	0	0	34.17207740173804	-14.4070228086773	-10.40903568090775	50.96103590601057	0.8894378667869359	0	0	0	-4.514263075423831	-1.220311689849614	2.67945087846999	31.12471233898599	-3.661063956095686	3.231191991418163	37.57845329329297	120.7695515212487	0	0	37.49462048673523	-9.436129215310951	13.58140938615583	22.19277193272214	118.4929627435723	0	0
